<?xml version="1.0" standalone="no"?><!DOCTYPE svg PUBLIC "-//W3C//DTD SVG 1.1//EN" "http://www.w3.org/Graphics/SVG/1.1/DTD/svg11.dtd"><svg class="icon" width="200px" height="200.00px" viewBox="0 0 1024 1024" version="1.1" xmlns="http://www.w3.org/2000/svg"><path fill="#9c9c9c" d="M512 992C248 992 32 776 32 512S248 32 512 32s480 216 480 480-216 480-480 480z m0-896C283.2 96 96 283.2 96 512s187.2 416 416 416 416-187.2 416-416S740.8 96 512 96zM715.2 344c-8 0-16 3.2-22.4 9.6L444.8 603.2l-113.6-113.6c-6.4-6.4-14.4-9.6-22.4-9.6-8 0-16 3.2-22.4 9.6-12.8 12.8-12.8 32 0 44.8l136 136c6.4 6.4 14.4 9.6 22.4 9.6 8 0 16-3.2 22.4-9.6l272-272c12.8-12.8 12.8-32 0-44.8-6.4-6.4-16-9.6-24-9.6z" /></svg>